MutatorSansInstance_1000-400.ufo
<glyph name="comma" format="2">
  <advance width="274"/>
  <unicode hex="002C"/>
  <outline>
    <contour>
      <point x="232" y="0" type="line"/>
      <point x="232" y="300" type="line"/>
      <point x="42" y="300" type="line"/>
      <point x="42" y="0" type="line"/>
      <point x="121" y="-16" type="line"/>
      <point x="113" y="12" type="line"/>
      <point x="91" y="-143" type="line"/>
      <point x="163" y="-145" type="line"/>
    </contour>
  </outline>
</glyph>
<glyph name="A" format="2">
  <advance width="960"/>
  <unicode hex="0041"/>
  <outline>
    <contour>
      <point x="14" y="0" type="line"/>
      <point x="290" y="0" type="line"/>
      <point x="456" y="800" type="line"/>
      <point x="218" y="800" type="line"/>
    </contour>
    <contour>
      <point x="150" y="120" type="line"/>
      <point x="724" y="120" type="line"/>
      <point x="724" y="334" type="line"/>
      <point x="150" y="334" type="line"/>
    </contour>
    <contour>
      <point x="554" y="0" type="line"/>
      <point x="946" y="0" type="line"/>
      <point x="740" y="800" type="line"/>
      <point x="368" y="800" type="line"/>
    </contour>
    <contour>
      <point x="286" y="540" type="line"/>
      <point x="616" y="540" type="line"/>
      <point x="616" y="800" type="line"/>
      <point x="286" y="800" type="line"/>
    </contour>
  </outline>
</glyph>
<glyph name="B" format="2">
  <advance width="946"/>
  <unicode hex="0042"/>
  <outline>
    <contour>
      <point x="42" y="0" type="line"/>
      <point x="396" y="0" type="line"/>
      <point x="396" y="800" type="line"/>
      <point x="42" y="800" type="line"/>
    </contour>
    <contour>
      <point x="348" y="343" type="line"/>
      <point x="520" y="343" type="line" smooth="yes"/>
      <point x="554" y="343"/>
      <point x="581" y="336"/>
      <point x="581" y="290" type="curve" smooth="yes"/>
      <point x="581" y="249"/>
      <point x="554" y="238"/>
      <point x="520" y="238" type="curve" smooth="yes"/>
      <point x="348" y="238" type="line"/>
      <point x="348" y="0" type="line"/>
      <point x="620" y="0" type="line" smooth="yes"/>
      <point x="875" y="0"/>
      <point x="932" y="94"/>
      <point x="932" y="230" type="curve" smooth="yes"/>
      <point x="932" y="356"/>
      <point x="869" y="417"/>
      <point x="775" y="434" type="curve"/>
      <point x="757" y="377" type="line"/>
      <point x="834" y="392"/>
      <point x="914" y="444"/>
      <point x="914" y="563" type="curve" smooth="yes"/>
      <point x="914" y="711"/>
      <point x="837" y="800"/>
      <point x="589" y="800" type="curve" smooth="yes"/>
      <point x="348" y="800" type="line"/>
      <point x="348" y="574" type="line"/>
      <point x="504" y="574" type="line" smooth="yes"/>
      <point x="542" y="574"/>
      <point x="569" y="564"/>
      <point x="569" y="525" type="curve" smooth="yes"/>
      <point x="569" y="475"/>
      <point x="542" y="474"/>
      <point x="504" y="474" type="curve" smooth="yes"/>
      <point x="348" y="474" type="line"/>
    </contour>
  </outline>
</glyph>
<glyph name="C" format="2">
  <advance width="1043"/>
  <unicode hex="0043"/>
  <outline>
    <contour>
      <point x="670" y="372" type="line"/>
      <point x="662" y="285"/>
      <point x="623" y="254"/>
      <point x="551" y="254" type="curve" smooth="yes"/>
      <point x="508" y="254" type="line" smooth="yes"/>
      <point x="432" y="254"/>
      <point x="394" y="298"/>
      <point x="394" y="403" type="curve" smooth="yes"/>
      <point x="394" y="504"/>
      <point x="432" y="546"/>
      <point x="508" y="546" type="curve" smooth="yes"/>
      <point x="551" y="546" type="line" smooth="yes"/>
      <point x="623" y="546"/>
      <point x="662" y="517"/>
      <point x="670" y="435" type="curve"/>
      <point x="1014" y="471" type="line"/>
      <point x="986" y="700"/>
      <point x="823" y="810"/>
      <point x="576" y="810" type="curve" smooth="yes"/>
      <point x="481" y="810" type="line" smooth="yes"/>
      <point x="203" y="810"/>
      <point x="28" y="679"/>
      <point x="28" y="403" type="curve" smooth="yes"/>
      <point x="28" y="124"/>
      <point x="203" y="-10"/>
      <point x="481" y="-10" type="curve" smooth="yes"/>
      <point x="576" y="-10" type="line" smooth="yes"/>
      <point x="824" y="-10"/>
      <point x="988" y="103"/>
      <point x="1015" y="338" type="curve"/>
    </contour>
  </outline>
</glyph>
<glyph name="D" format="2">
  <advance width="946"/>
  <unicode hex="0044"/>
  <outline>
    <contour>
      <point x="42" y="0" type="line"/>
      <point x="383" y="0" type="line"/>
      <point x="383" y="800" type="line"/>
      <point x="42" y="800" type="line"/>
    </contour>
    <contour>
      <point x="330" y="546" type="line"/>
      <point x="438" y="546" type="line" smooth="yes"/>
      <point x="514" y="546"/>
      <point x="553" y="504"/>
      <point x="553" y="403" type="curve" smooth="yes"/>
      <point x="553" y="298"/>
      <point x="514" y="254"/>
      <point x="438" y="254" type="curve" smooth="yes"/>
      <point x="325" y="254" type="line"/>
      <point x="325" y="0" type="line"/>
      <point x="464" y="0" type="line" smooth="yes"/>
      <point x="742" y="0"/>
      <point x="918" y="128"/>
      <point x="918" y="403" type="curve" smooth="yes"/>
      <point x="918" y="675"/>
      <point x="742" y="800"/>
      <point x="464" y="800" type="curve" smooth="yes"/>
      <point x="330" y="800" type="line"/>
    </contour>
  </outline>
</glyph>
<glyph name="E" format="2">
  <advance width="844"/>
  <unicode hex="0045"/>
  <anchor x="420" y="841" name="top"/>
  <outline>
    <contour>
      <point x="48" y="0" type="line"/>
      <point x="390" y="0" type="line"/>
      <point x="390" y="800" type="line"/>
      <point x="48" y="800" type="line"/>
    </contour>
    <contour>
      <point x="138" y="530" type="line"/>
      <point x="802" y="530" type="line"/>
      <point x="802" y="800" type="line"/>
      <point x="138" y="800" type="line"/>
    </contour>
    <contour>
      <point x="138" y="0" type="line"/>
      <point x="802" y="0" type="line"/>
      <point x="802" y="270" type="line"/>
      <point x="138" y="270" type="line"/>
    </contour>
    <contour>
      <point x="138" y="315" type="line"/>
      <point x="696" y="315" type="line"/>
      <point x="696" y="485" type="line"/>
      <point x="138" y="485" type="line"/>
    </contour>
  </outline>
</glyph>
<glyph name="F" format="2">
  <advance width="820"/>
  <unicode hex="0046"/>
  <outline>
    <contour>
      <point x="42" y="0" type="line"/>
      <point x="402" y="0" type="line"/>
      <point x="402" y="800" type="line"/>
      <point x="42" y="800" type="line"/>
    </contour>
    <contour>
      <point x="138" y="542" type="line"/>
      <point x="778" y="542" type="line"/>
      <point x="778" y="800" type="line"/>
      <point x="138" y="800" type="line"/>
    </contour>
    <contour>
      <point x="138" y="259" type="line"/>
      <point x="724" y="259" type="line"/>
      <point x="724" y="477" type="line"/>
      <point x="138" y="477" type="line"/>
    </contour>
  </outline>
</glyph>
<glyph name="G" format="2">
  <advance width="1062"/>
  <unicode hex="0047"/>
  <outline>
    <contour>
      <point x="508" y="309" type="line"/>
      <point x="715" y="309" type="line"/>
      <point x="715" y="216" type="line"/>
      <point x="855" y="0" type="line"/>
      <point x="1020" y="0" type="line"/>
      <point x="1020" y="414" type="line"/>
      <point x="508" y="414" type="line"/>
    </contour>
    <contour>
      <point x="682" y="376" type="line"/>
      <point x="674" y="289"/>
      <point x="632" y="254"/>
      <point x="551" y="254" type="curve" smooth="yes"/>
      <point x="508" y="254" type="line" smooth="yes"/>
      <point x="432" y="254"/>
      <point x="394" y="298"/>
      <point x="394" y="403" type="curve" smooth="yes"/>
      <point x="394" y="504"/>
      <point x="435" y="546"/>
      <point x="517" y="546" type="curve" smooth="yes"/>
      <point x="560" y="546" type="line" smooth="yes"/>
      <point x="634" y="546"/>
      <point x="674" y="517"/>
      <point x="682" y="435" type="curve"/>
      <point x="1008" y="471" type="line"/>
      <point x="980" y="700"/>
      <point x="820" y="810"/>
      <point x="576" y="810" type="curve" smooth="yes"/>
      <point x="481" y="810" type="line" smooth="yes"/>
      <point x="203" y="810"/>
      <point x="28" y="679"/>
      <point x="28" y="403" type="curve" smooth="yes"/>
      <point x="28" y="124"/>
      <point x="203" y="-10"/>
      <point x="481" y="-10" type="curve" smooth="yes"/>
      <point x="504" y="-10" type="line" smooth="yes"/>
      <point x="749" y="-10"/>
      <point x="910" y="107"/>
      <point x="937" y="342" type="curve"/>
    </contour>
  </outline>
</glyph>
<glyph name="H" format="2">
  <advance width="994"/>
  <unicode hex="0048"/>
  <outline>
    <contour>
      <point x="42" y="0" type="line"/>
      <point x="402" y="0" type="line"/>
      <point x="402" y="800" type="line"/>
      <point x="42" y="800" type="line"/>
    </contour>
    <contour>
      <point x="176" y="264" type="line"/>
      <point x="818" y="264" type="line"/>
      <point x="818" y="524" type="line"/>
      <point x="176" y="524" type="line"/>
    </contour>
    <contour>
      <point x="592" y="0" type="line"/>
      <point x="952" y="0" type="line"/>
      <point x="952" y="800" type="line"/>
      <point x="592" y="800" type="line"/>
    </contour>
  </outline>
</glyph>
<glyph name="I" format="2">
  <advance width="744"/>
  <unicode hex="0049"/>
  <outline>
    <contour>
      <point x="192" y="0" type="line"/>
      <point x="552" y="0" type="line"/>
      <point x="552" y="800" type="line"/>
      <point x="192" y="800" type="line"/>
    </contour>
    <contour>
      <point x="42" y="524" type="line"/>
      <point x="702" y="524" type="line"/>
      <point x="702" y="800" type="line"/>
      <point x="42" y="800" type="line"/>
    </contour>
    <contour>
      <point x="42" y="0" type="line"/>
      <point x="702" y="0" type="line"/>
      <point x="702" y="276" type="line"/>
      <point x="42" y="276" type="line"/>
    </contour>
  </outline>
</glyph>
<glyph name="J" format="2">
  <advance width="750"/>
  <unicode hex="004A"/>
  <outline>
    <contour>
      <point x="226" y="-10" type="curve" smooth="yes"/>
      <point x="525" y="-10"/>
      <point x="708" y="117"/>
      <point x="708" y="379" type="curve" smooth="yes"/>
      <point x="708" y="800" type="line"/>
      <point x="343" y="800" type="line"/>
      <point x="343" y="431" type="line" smooth="yes"/>
      <point x="343" y="323"/>
      <point x="294" y="278"/>
      <point x="204" y="278" type="curve" smooth="yes"/>
      <point x="173" y="278"/>
      <point x="133" y="280"/>
      <point x="90" y="289" type="curve"/>
      <point x="42" y="12" type="line"/>
      <point x="96" y="-3"/>
      <point x="158" y="-10"/>
    </contour>
  </outline>
</glyph>
<glyph name="K" format="2">
  <advance width="1019"/>
  <unicode hex="004B"/>
  <outline>
    <contour>
      <point x="42" y="0" type="line"/>
      <point x="402" y="0" type="line"/>
      <point x="402" y="800" type="line"/>
      <point x="42" y="800" type="line"/>
    </contour>
    <contour>
      <point x="324" y="312" type="line"/>
      <point x="412" y="312" type="line"/>
      <point x="578" y="0" type="line"/>
      <point x="1005" y="0" type="line"/>
      <point x="720" y="533" type="line"/>
      <point x="421" y="452" type="line"/>
      <point x="324" y="452" type="line"/>
    </contour>
    <contour>
      <point x="404" y="426" type="line"/>
      <point x="637" y="318" type="line"/>
      <point x="996" y="800" type="line"/>
      <point x="604" y="800" type="line"/>
    </contour>
  </outline>
</glyph>
<glyph name="L" format="2">
  <advance width="758"/>
  <unicode hex="004C"/>
  <outline>
    <contour>
      <point x="42" y="0" type="line"/>
      <point x="402" y="0" type="line"/>
      <point x="402" y="800" type="line"/>
      <point x="42" y="800" type="line"/>
    </contour>
    <contour>
      <point x="138" y="0" type="line"/>
      <point x="738" y="0" type="line"/>
      <point x="738" y="262" type="line"/>
      <point x="138" y="262" type="line"/>
    </contour>
  </outline>
</glyph>
<glyph name="M" format="2">
  <advance width="1018"/>
  <unicode hex="004D"/>
  <outline>
    <contour>
      <point x="42" y="0" type="line"/>
      <point x="320" y="0" type="line"/>
      <point x="320" y="800" type="line"/>
      <point x="42" y="800" type="line"/>
    </contour>
    <contour>
      <point x="976" y="0" type="line"/>
      <point x="976" y="800" type="line"/>
      <point x="698" y="800" type="line"/>
      <point x="698" y="0" type="line"/>
    </contour>
    <contour>
      <point x="826" y="419" type="line"/>
      <point x="698" y="800" type="line"/>
      <point x="491" y="549" type="line"/>
      <point x="527" y="549" type="line"/>
      <point x="320" y="800" type="line"/>
      <point x="192" y="419" type="line"/>
      <point x="457" y="125" type="line"/>
      <point x="561" y="125" type="line"/>
    </contour>
  </outline>
</glyph>
<glyph name="N" format="2">
  <advance width="984"/>
  <unicode hex="004E"/>
  <outline>
    <contour>
      <point x="42" y="0" type="line"/>
      <point x="320" y="0" type="line"/>
      <point x="320" y="800" type="line"/>
      <point x="42" y="800" type="line"/>
    </contour>
    <contour>
      <point x="166" y="494" type="line"/>
      <point x="664" y="0" type="line"/>
      <point x="818" y="306" type="line"/>
      <point x="320" y="800" type="line"/>
    </contour>
    <contour>
      <point x="664" y="0" type="line"/>
      <point x="942" y="0" type="line"/>
      <point x="942" y="800" type="line"/>
      <point x="664" y="800" type="line"/>
    </contour>
  </outline>
</glyph>
<glyph name="O" format="2">
  <advance width="1059"/>
  <unicode hex="004F"/>
  <outline>
    <contour>
      <point x="481" y="-10" type="curve" smooth="yes"/>
      <point x="576" y="-10" type="line" smooth="yes"/>
      <point x="855" y="-10"/>
      <point x="1031" y="124"/>
      <point x="1031" y="403" type="curve" smooth="yes"/>
      <point x="1031" y="679"/>
      <point x="855" y="810"/>
      <point x="576" y="810" type="curve" smooth="yes"/>
      <point x="481" y="810" type="line" smooth="yes"/>
      <point x="203" y="810"/>
      <point x="28" y="679"/>
      <point x="28" y="403" type="curve" smooth="yes"/>
      <point x="28" y="124"/>
      <point x="203" y="-10"/>
    </contour>
    <contour>
      <point x="508" y="254" type="line" smooth="yes"/>
      <point x="432" y="254"/>
      <point x="394" y="298"/>
      <point x="394" y="403" type="curve" smooth="yes"/>
      <point x="394" y="504"/>
      <point x="432" y="546"/>
      <point x="508" y="546" type="curve" smooth="yes"/>
      <point x="551" y="546" type="line" smooth="yes"/>
      <point x="627" y="546"/>
      <point x="665" y="504"/>
      <point x="665" y="403" type="curve" smooth="yes"/>
      <point x="665" y="298"/>
      <point x="627" y="254"/>
      <point x="551" y="254" type="curve" smooth="yes"/>
    </contour>
  </outline>
</glyph>
<glyph name="P" format="2">
  <advance width="913"/>
  <unicode hex="0050"/>
  <outline>
    <contour>
      <point x="42" y="0" type="line"/>
      <point x="402" y="0" type="line"/>
      <point x="402" y="800" type="line"/>
      <point x="42" y="800" type="line"/>
    </contour>
    <contour>
      <point x="292" y="534" type="line"/>
      <point x="504" y="534" type="line" smooth="yes"/>
      <point x="546" y="534"/>
      <point x="565" y="522"/>
      <point x="565" y="474" type="curve" smooth="yes"/>
      <point x="565" y="420"/>
      <point x="546" y="412"/>
      <point x="504" y="412" type="curve" smooth="yes"/>
      <point x="292" y="412" type="line"/>
      <point x="292" y="145" type="line"/>
      <point x="504" y="145" type="line" smooth="yes"/>
      <point x="795" y="145"/>
      <point x="893" y="253"/>
      <point x="893" y="474" type="curve" smooth="yes"/>
      <point x="893" y="693"/>
      <point x="795" y="800"/>
      <point x="505" y="800" type="curve" smooth="yes"/>
      <point x="292" y="800" type="line"/>
    </contour>
  </outline>
</glyph>
<glyph name="Q" format="2">
  <advance width="1059"/>
  <unicode hex="0051"/>
  <outline>
    <contour>
      <point x="470" y="-130" type="line"/>
      <point x="824" y="-130" type="line"/>
      <point x="702" y="170" type="line"/>
      <point x="364" y="170" type="line"/>
    </contour>
    <component base="O"/>
  </outline>
</glyph>
<glyph name="R" format="2">
  <advance width="919"/>
  <unicode hex="0052"/>
  <outline>
    <contour>
      <point x="531" y="0" type="line"/>
      <point x="895" y="0" type="line"/>
      <point x="855" y="160" type="line" smooth="yes"/>
      <point x="833" y="221"/>
      <point x="788" y="266"/>
      <point x="708" y="266" type="curve"/>
      <point x="476" y="266" type="line"/>
    </contour>
    <contour>
      <point x="42" y="0" type="line"/>
      <point x="402" y="0" type="line"/>
      <point x="402" y="800" type="line"/>
      <point x="42" y="800" type="line"/>
    </contour>
    <contour>
      <point x="292" y="534" type="line"/>
      <point x="510" y="534" type="line" smooth="yes"/>
      <point x="552" y="534"/>
      <point x="571" y="522"/>
      <point x="571" y="474" type="curve" smooth="yes"/>
      <point x="571" y="420"/>
      <point x="552" y="412"/>
      <point x="510" y="412" type="curve" smooth="yes"/>
      <point x="292" y="412" type="line"/>
      <point x="292" y="206" type="line"/>
      <point x="516" y="206" type="line" smooth="yes"/>
      <point x="795" y="206"/>
      <point x="899" y="303"/>
      <point x="899" y="504" type="curve" smooth="yes"/>
      <point x="899" y="704"/>
      <point x="789" y="800"/>
      <point x="510" y="800" type="curve" smooth="yes"/>
      <point x="292" y="800" type="line"/>
    </contour>
  </outline>
</glyph>
<glyph name="S" format="2">
  <advance width="911"/>
  <unicode hex="0053"/>
  <outline>
    <contour>
      <point x="887" y="253" type="curve" smooth="yes"/>
      <point x="887" y="462"/>
      <point x="771" y="521"/>
      <point x="546" y="531" type="curve" smooth="yes"/>
      <point x="433" y="535" type="line" smooth="yes"/>
      <point x="334" y="540"/>
      <point x="326" y="542"/>
      <point x="326" y="552" type="curve" smooth="yes"/>
      <point x="326" y="563"/>
      <point x="343" y="567"/>
      <point x="408" y="567" type="curve" smooth="yes"/>
      <point x="521" y="567" type="line" smooth="yes"/>
      <point x="630" y="567"/>
      <point x="737" y="558"/>
      <point x="817" y="548" type="curve"/>
      <point x="852" y="780" type="line"/>
      <point x="772" y="794"/>
      <point x="634" y="810"/>
      <point x="561" y="810" type="curve" smooth="yes"/>
      <point x="482" y="810" type="line" smooth="yes"/>
      <point x="167" y="810"/>
      <point x="32" y="715"/>
      <point x="32" y="529" type="curve" smooth="yes"/>
      <point x="32" y="343"/>
      <point x="166" y="280"/>
      <point x="374" y="269" type="curve" smooth="yes"/>
      <point x="481" y="264" type="line" smooth="yes"/>
      <point x="570" y="259"/>
      <point x="587" y="259"/>
      <point x="587" y="246" type="curve" smooth="yes"/>
      <point x="587" y="238"/>
      <point x="569" y="234"/>
      <point x="504" y="234" type="curve" smooth="yes"/>
      <point x="396" y="234" type="line" smooth="yes"/>
      <point x="270" y="234"/>
      <point x="152" y="242"/>
      <point x="62" y="255" type="curve"/>
      <point x="26" y="20" type="line"/>
      <point x="119" y="5"/>
      <point x="271" y="-10"/>
      <point x="358" y="-10" type="curve" smooth="yes"/>
      <point x="443" y="-10" type="line" smooth="yes"/>
      <point x="791" y="-10"/>
      <point x="887" y="103"/>
    </contour>
  </outline>
</glyph>
<glyph name="T" format="2">
  <advance width="876"/>
  <unicode hex="0054"/>
  <outline>
    <contour>
      <point x="258" y="0" type="line"/>
      <point x="618" y="0" type="line"/>
      <point x="618" y="800" type="line"/>
      <point x="258" y="800" type="line"/>
    </contour>
    <contour>
      <point x="20" y="526" type="line"/>
      <point x="856" y="526" type="line"/>
      <point x="856" y="800" type="line"/>
      <point x="20" y="800" type="line"/>
    </contour>
  </outline>
</glyph>
<glyph name="U" format="2">
  <advance width="984"/>
  <unicode hex="0055"/>
  <outline>
    <contour>
      <point x="491" y="-10" type="curve" smooth="yes"/>
      <point x="783" y="-10"/>
      <point x="930" y="117"/>
      <point x="930" y="379" type="curve" smooth="yes"/>
      <point x="930" y="800" type="line"/>
      <point x="566" y="800" type="line"/>
      <point x="566" y="349" type="line" smooth="yes"/>
      <point x="566" y="290"/>
      <point x="540" y="266"/>
      <point x="492" y="266" type="curve" smooth="yes"/>
      <point x="445" y="266"/>
      <point x="419" y="290"/>
      <point x="419" y="349" type="curve" smooth="yes"/>
      <point x="419" y="800" type="line"/>
      <point x="54" y="800" type="line"/>
      <point x="54" y="379" type="line" smooth="yes"/>
      <point x="54" y="117"/>
      <point x="199" y="-10"/>
    </contour>
  </outline>
</glyph>
<glyph name="V" format="2">
  <advance width="972"/>
  <unicode hex="0056"/>
  <outline>
    <contour>
      <point x="958" y="800" type="line"/>
      <point x="676" y="800" type="line"/>
      <point x="494" y="0" type="line"/>
      <point x="738" y="0" type="line"/>
    </contour>
    <contour>
      <point x="406" y="800" type="line"/>
      <point x="14" y="800" type="line"/>
      <point x="232" y="0" type="line"/>
      <point x="604" y="0" type="line"/>
    </contour>
    <contour>
      <point x="678" y="260" type="line"/>
      <point x="348" y="260" type="line"/>
      <point x="348" y="0" type="line"/>
      <point x="678" y="0" type="line"/>
    </contour>
  </outline>
</glyph>
<glyph name="W" format="2">
  <advance width="1080"/>
  <unicode hex="0057"/>
  <outline>
    <contour>
      <point x="1066" y="800" type="line"/>
      <point x="759" y="800" type="line"/>
      <point x="700" y="270" type="line"/>
      <point x="735" y="270" type="line"/>
      <point x="675" y="800" type="line"/>
      <point x="442" y="800" type="line"/>
      <point x="387" y="270" type="line"/>
      <point x="422" y="270" type="line"/>
      <point x="361" y="800" type="line"/>
      <point x="14" y="800" type="line"/>
      <point x="138" y="0" type="line"/>
      <point x="487" y="0" type="line"/>
      <point x="543" y="433" type="line"/>
      <point x="492" y="433" type="line"/>
      <point x="561" y="0" type="line"/>
      <point x="946" y="0" type="line"/>
    </contour>
  </outline>
</glyph>
<glyph name="X" format="2">
  <advance width="962"/>
  <unicode hex="0058"/>
  <outline>
    <contour>
      <point x="524" y="0" type="line"/>
      <point x="948" y="0" type="line"/>
      <point x="624" y="476" type="line"/>
      <point x="438" y="800" type="line"/>
      <point x="14" y="800" type="line"/>
      <point x="328" y="360" type="line"/>
    </contour>
    <contour>
      <point x="14" y="0" type="line"/>
      <point x="332" y="0" type="line"/>
      <point x="464" y="316" type="line"/>
      <point x="654" y="336" type="line"/>
      <point x="948" y="800" type="line"/>
      <point x="630" y="800" type="line"/>
      <point x="487" y="517" type="line"/>
      <point x="297" y="487" type="line"/>
    </contour>
  </outline>
</glyph>
<glyph name="Y" format="2">
  <advance width="928"/>
  <unicode hex="0059"/>
  <outline>
    <contour>
      <point x="914" y="800" type="line"/>
      <point x="636" y="800" type="line"/>
      <point x="412" y="204" type="line"/>
      <point x="644" y="204" type="line"/>
    </contour>
    <contour>
      <point x="395" y="800" type="line"/>
      <point x="14" y="800" type="line"/>
      <point x="284" y="204" type="line"/>
      <point x="614" y="204" type="line"/>
    </contour>
    <contour>
      <point x="644" y="314" type="line"/>
      <point x="284" y="314" type="line"/>
      <point x="284" y="0" type="line"/>
      <point x="644" y="0" type="line"/>
    </contour>
  </outline>
</glyph>
<glyph name="Z" format="2">
  <advance width="896"/>
  <unicode hex="005A"/>
  <outline>
    <contour>
      <point x="42" y="262" type="line"/>
      <point x="460" y="210" type="line"/>
      <point x="854" y="538" type="line"/>
      <point x="436" y="590" type="line"/>
    </contour>
    <contour>
      <point x="42" y="538" type="line"/>
      <point x="854" y="538" type="line"/>
      <point x="854" y="800" type="line"/>
      <point x="42" y="800" type="line"/>
    </contour>
    <contour>
      <point x="42" y="0" type="line"/>
      <point x="854" y="0" type="line"/>
      <point x="854" y="262" type="line"/>
      <point x="42" y="262" type="line"/>
    </contour>
  </outline>
</glyph>
